<?xml version="1.0" encoding="utf-8"?>
<svg viewBox="0 0 831 264" xmlns="http://www.w3.org/2000/svg">
  <path fill="#040404" opacity="1.000000" stroke="none" d="&#10;M53.452477,204.604568 &#10;&#9;C40.913799,195.102646 34.546795,182.346878 34.248741,167.415131 &#10;&#9;C33.610596,135.445389 33.970905,103.455711 33.938461,71.474182 &#10;&#9;C33.938156,71.175774 34.158714,70.877129 34.395947,70.274094 &#10;&#9;C42.689056,70.274094 51.098667,70.274094 60.070469,70.274094 &#10;&#9;C60.146446,72.007423 60.289402,73.761772 60.290359,75.516205 &#10;&#9;C60.305157,102.670464 60.082382,129.827805 60.465012,156.976700 &#10;&#9;C60.554337,163.314697 61.613811,170.087326 64.107239,175.845810 &#10;&#9;C68.692543,186.435364 80.745834,191.050415 94.358093,188.879745 &#10;&#9;C105.950020,187.031265 114.050461,179.243637 115.951019,167.701141 &#10;&#9;C116.623581,163.616577 116.822960,159.415787 116.834793,155.266922 &#10;&#9;C116.910385,128.779236 116.873413,102.291229 116.873474,75.803329 &#10;&#9;C116.873474,74.018105 116.873466,72.232880 116.873466,70.210129 &#10;&#9;C125.950356,70.210129 134.525299,70.210129 143.712967,70.210129 &#10;&#9;C143.712967,72.022736 143.712982,73.636665 143.712967,75.250595 &#10;&#9;C143.712662,103.237808 143.775452,131.225220 143.684113,159.212143 &#10;&#9;C143.641556,172.256317 141.447754,184.766953 133.216415,195.484634 &#10;&#9;C123.361359,208.316513 109.620605,213.585266 94.148689,214.802689 &#10;&#9;C79.686974,215.940613 65.942879,213.267380 53.452477,204.604568 &#10;z"/>
  <path fill="#040404" opacity="1.000000" stroke="none" d="&#10;M266.280884,134.824219 &#10;&#9;C270.744843,146.740738 271.745880,156.887787 269.683807,168.913635 &#10;&#9;C243.310715,168.913635 216.862671,168.913635 190.377762,168.913635 &#10;&#9;C191.604645,181.595200 202.760284,191.664581 216.775406,192.934647 &#10;&#9;C229.092056,194.050797 240.567459,191.062469 251.441925,185.421753 &#10;&#9;C253.051636,184.586777 254.632355,183.695923 256.663330,182.593872 &#10;&#9;C259.977448,188.522308 263.192047,194.272644 266.573029,200.320679 &#10;&#9;C257.017029,207.192673 246.775833,211.303833 235.693253,213.329224 &#10;&#9;C217.692444,216.618927 200.330460,215.220963 185.011047,204.250458 &#10;&#9;C165.778351,190.477585 158.602676,162.041306 167.871689,138.422668 &#10;&#9;C176.706467,115.910538 199.062973,102.788338 224.427353,105.516853 &#10;&#9;C243.511490,107.569794 258.122314,116.322075 266.280884,134.824219 &#10;M191.906845,143.535492 &#10;&#9;C191.211563,145.497543 190.516281,147.459610 189.769806,149.566116 &#10;&#9;C208.806427,149.566116 227.166046,149.566116 246.633987,149.566116 &#10;&#9;C244.516739,144.977173 243.183304,140.829300 240.881836,137.315460 &#10;&#9;C230.620255,121.648331 201.813385,121.810173 191.906845,143.535492 &#10;z"/>
  <path fill="#050505" opacity="1.000000" stroke="none" d="&#10;M366.823608,111.173721 &#10;&#9;C376.880951,116.366409 384.469421,123.484619 389.423462,134.024948 &#10;&#9;C382.683380,137.644348 376.150024,141.152725 369.208740,144.880142 &#10;&#9;C361.876984,134.310577 352.323730,127.819145 339.077850,128.549652 &#10;&#9;C330.374451,129.029633 322.984711,132.419571 317.183624,139.051575 &#10;&#9;C306.015137,151.819717 307.368683,173.006027 320.077942,184.193375 &#10;&#9;C334.248535,196.667068 353.671082,193.321579 369.024353,175.510010 &#10;&#9;C375.534790,179.302536 382.107513,183.131317 389.017456,187.156555 &#10;&#9;C384.064789,196.580124 376.853638,203.133148 367.922089,207.992767 &#10;&#9;C344.144318,220.930130 311.972961,215.124405 296.072083,195.012436 &#10;&#9;C282.533234,177.888016 280.234680,151.527176 291.297089,132.358154 &#10;&#9;C303.389130,111.405083 322.759125,104.003334 345.873871,105.620750 &#10;&#9;C352.835815,106.107903 359.619019,109.149452 366.823608,111.173721 &#10;z"/>
  <path fill="#040404" opacity="1.000000" stroke="none" d="&#10;M486.911377,186.030029 &#10;&#9;C488.839600,184.961899 490.430084,184.055679 492.024963,183.157288 &#10;&#9;C492.165497,183.078110 492.334717,183.049881 493.256042,182.743179 &#10;&#9;C496.404175,188.298340 499.635010,193.999481 503.114655,200.139572 &#10;&#9;C496.137177,205.732849 488.277130,209.079590 479.993591,211.467560 &#10;&#9;C462.631866,216.472580 445.364441,216.592453 428.809418,208.665482 &#10;&#9;C407.118286,198.279221 396.177368,173.146271 402.115845,146.601242 &#10;&#9;C407.076080,124.428963 421.269287,110.559731 443.558868,106.443291 &#10;&#9;C464.744110,102.530815 483.832428,107.164352 497.467621,125.326912 &#10;&#9;C507.146667,138.219742 508.284851,153.159042 506.392181,168.952118 &#10;&#9;C479.788483,168.952118 453.520874,168.952118 427.261444,168.952118 &#10;&#9;C427.115784,177.646500 434.923126,187.358444 444.513031,190.826675 &#10;&#9;C456.115723,195.022797 467.490784,193.160172 478.764069,189.484955 &#10;&#9;C481.440796,188.612289 483.975067,187.302689 486.911377,186.030029 &#10;M441.505493,149.937469 &#10;&#9;C454.947968,149.937469 468.390442,149.937469 481.843994,149.937469 &#10;&#9;C481.359558,136.597321 469.792664,126.386703 455.459717,126.231201 &#10;&#9;C440.953156,126.073830 427.817444,136.883606 427.092255,149.937469 &#10;&#9;C431.575836,149.937469 436.042603,149.937469 441.505493,149.937469 &#10;z"/>
  <path fill="#050505" opacity="1.000000" stroke="none" d="&#10;M598.287537,194.997162 &#10;&#9;C598.287415,182.334595 598.290100,170.171509 598.284241,158.008408 &#10;&#9;C598.283325,156.175919 598.285156,154.341797 598.213989,152.511230 &#10;&#9;C597.622009,137.283661 589.322815,128.057617 576.216370,128.033493 &#10;&#9;C562.322754,128.007919 552.248840,138.128159 551.992615,153.091248 &#10;&#9;C551.687378,170.914200 551.883362,188.745758 551.862671,206.573578 &#10;&#9;C551.860596,208.367035 551.862366,210.160477 551.862366,212.235687 &#10;&#9;C543.351624,212.235687 535.269043,212.235687 526.906250,212.235687 &#10;&#9;C526.906250,177.524323 526.906250,142.944580 526.906250,108.084274 &#10;&#9;C534.926392,108.084274 542.823792,108.084274 551.245605,108.084274 &#10;&#9;C551.245605,112.419846 551.245605,116.637657 551.245605,122.342506 &#10;&#9;C559.916992,110.440826 570.380554,104.603165 583.785706,104.949173 &#10;&#9;C597.215515,105.295807 607.758484,110.887535 614.634277,123.153160 &#10;&#9;C624.514038,110.440216 637.460266,104.764511 653.055725,104.920486 &#10;&#9;C676.376526,105.153717 693.079773,119.617455 694.536499,143.556030 &#10;&#9;C695.919067,166.276138 694.833984,189.146408 694.833984,212.235840 &#10;&#9;C686.621338,212.235840 678.508301,212.235840 669.704895,212.235840 &#10;&#9;C669.704895,210.501343 669.704956,208.736298 669.704895,206.971237 &#10;&#9;C669.704224,189.976227 669.787659,172.980484 669.640442,155.986740 &#10;&#9;C669.606140,152.029221 669.252441,147.955048 668.240723,144.148499 &#10;&#9;C665.531982,133.956604 658.739441,128.447205 649.169006,128.041962 &#10;&#9;C638.615723,127.595116 629.431580,132.860977 626.173157,142.219162 &#10;&#9;C624.515808,146.978912 623.778381,152.265549 623.698730,157.330902 &#10;&#9;C623.413452,175.470413 623.586975,193.617142 623.586975,212.140625 &#10;&#9;C615.232849,212.140625 607.163818,212.140625 598.287537,212.140625 &#10;&#9;C598.287537,206.653641 598.287537,201.075119 598.287537,194.997162 &#10;z"/>
  <path fill="#040404" opacity="1.000000" stroke="none" d="&#10;M768.935547,158.877502 &#10;&#9;C774.536804,142.978058 780.118347,127.486115 785.407471,111.894974 &#10;&#9;C786.526184,108.597466 788.108887,107.598076 791.489441,107.723572 &#10;&#9;C798.792847,107.994667 806.113342,107.806976 814.244690,107.806976 &#10;&#9;C813.466980,110.076859 812.912292,111.868355 812.245178,113.616974 &#10;&#9;C798.727661,149.049011 785.260925,184.500626 771.627441,219.887985 &#10;&#9;C767.965393,229.393158 763.372009,238.442307 756.115295,245.862030 &#10;&#9;C745.165222,257.058075 727.383911,260.477997 713.244690,253.826050 &#10;&#9;C711.864990,253.176941 710.144592,250.961731 710.311890,249.703293 &#10;&#9;C711.118835,243.630295 712.518188,237.635986 713.786926,231.211151 &#10;&#9;C716.285583,231.956299 718.442444,232.619110 720.610596,233.242645 &#10;&#9;C729.489014,235.796036 736.690186,233.513290 742.358215,226.309525 &#10;&#9;C743.281616,225.135941 744.052490,223.841171 744.878540,222.592285 &#10;&#9;C749.015625,216.338043 750.284851,210.625397 746.657288,202.860550 &#10;&#9;C732.791016,173.180237 719.910156,143.039505 706.669373,113.067162 &#10;&#9;C706.013062,111.581459 705.433044,110.062088 704.514832,107.819237 &#10;&#9;C714.097412,107.819237 723.016418,107.707397 731.924377,107.969688 &#10;&#9;C732.964233,108.000313 734.348083,109.932571 734.889771,111.261467 &#10;&#9;C742.925720,130.976639 750.844299,150.739639 758.797363,170.488632 &#10;&#9;C759.663757,172.640167 760.572083,174.774857 761.982910,178.175430 &#10;&#9;C764.503601,171.189255 766.657593,165.219437 768.935547,158.877502 &#10;z"/>
  <path fill="#A236F0" opacity="1.000000" stroke="none" d="&#10;M227.233414,83.214325 &#10;&#9;C220.736893,89.020744 215.091156,87.762230 208.366516,83.468956 &#10;&#9;C195.902130,75.511223 182.832367,68.493271 169.920807,61.251339 &#10;&#9;C167.251495,59.754166 166.194626,58.033722 166.272827,54.953983 &#10;&#9;C166.478561,46.851425 166.342377,38.740185 166.342377,29.602489 &#10;&#9;C174.854355,34.462498 182.583069,38.849148 190.285995,43.280628 &#10;&#9;C198.215118,47.842239 206.193695,52.325634 213.994766,57.098034 &#10;&#9;C216.834137,58.835060 218.957291,58.527271 221.698135,56.912495 &#10;&#9;C235.168488,48.976372 248.755356,41.237831 262.312469,33.449326 &#10;&#9;C264.282166,32.317753 266.313232,31.293106 269.007965,29.847799 &#10;&#9;C269.007965,39.507416 269.119110,48.432919 268.877045,57.348835 &#10;&#9;C268.844269,58.557285 267.269867,60.109283 266.021637,60.839848 &#10;&#9;C253.245834,68.317314 240.389877,75.657806 227.233414,83.214325 &#10;z"/>
</svg>